<?xml version="1.0" encoding="UTF-8"?>
<svg xmlns="http://www.w3.org/2000/svg" viewBox="0 0 762.62 222.82">
  <defs>
    <style>
      .i {
        fill: #96bd0d;
      }

      .j {
        fill: #0068a5;
      }

      .k {
        fill: #474846;
      }
    </style>
  </defs>
  <g id="a">
    <g id="b">
      <rect class="i" x=".09" y="170.66" width="45.35" height="45.35" />
    </g>
  </g>
  <g id="c">
    <g id="d">
      <path class="j" d="m76.83,190.22h17v5.14h-17v10.25h18.11v5.8h-25.11v-36.46h25v5.8h-18v9.47Z" />
      <path class="j"
        d="m105.65,185.89l-.16,3.94h.11c1.31-3,3.61-4.26,7.77-4.26,4.59,0,7.22,1.64,7.71,4.75h.09c1.26-3.33,3.72-4.75,8.1-4.75,3.66,0,6.34,1.09,7.6,3.11.77,1.26,1.15,3.07,1.15,5.86v16.9h-6.18v-15.59c.05-1.24-.14-2.49-.55-3.66-.49-1-1.75-1.59-3.77-1.59-2.57,0-4.54.82-5.2,2.19-.45,1.19-.64,2.45-.55,3.72v14.93h-6.18v-15.83c.08-1.18-.07-2.37-.44-3.5-.49-1-1.86-1.53-3.83-1.53-4,0-5.69,1.69-5.69,6v14.82h-6.16v-25.51h6.18Z" />
      <path class="j"
        d="m149.91,185.89l-.22,3.78.11.05c1.69-3.22,3.61-4.15,8.26-4.15,3.28,0,5.74.76,7.22,2.24,1.86,1.91,2.57,4.76,2.57,10.61,0,10.23-2.3,13.35-9.79,13.35-4.6,0-6.51-1-7.88-4h-.11v14.66h-6.34v-36.54h6.18Zm.22,12.59c0,6.78,1.09,8.37,5.8,8.37s5.63-1.43,5.63-8c0-7.17-.87-8.48-5.74-8.48-4.71.01-5.65,1.43-5.65,8.11h-.04Z" />
      <path class="j"
        d="m193.59,187.7c1.92,1.8,2.63,4.54,2.63,10.34,0,11.38-2.08,13.73-12,13.73-6,0-8.92-.93-10.45-3.45-1.26-2-1.64-4.37-1.64-10.61,0-5.58.77-8.32,2.74-10.07,1.8-1.58,4.1-2.07,9.52-2.07,5.15.04,7.51.54,9.2,2.13Zm-15.21,10.72c0,7.5.71,8.54,5.69,8.54s5.86-1.1,5.86-8.81c0-6.73-.77-7.77-5.8-7.77s-5.75,1.04-5.75,8.04h0Z" />
      <path class="j"
        d="m231.74,211.44h-9.09l-2.57-11.43c-.43-2.08-.87-4.05-.93-4.49l-.49-2.3-.44-2.24h-.16l-.49,2.24c-.11.77-.28,1.54-.44,2.3-.11.6-.49,2.46-1,4.49l-2.51,11.43h-9.19l-5.69-25.55h6.18l2.46,11.82c.49,2.46.6,3.06,1.31,7.17l.44,2.35h.16l.5-2.35c.76-3.61.82-3.72,1.58-7.11l2.8-11.88h7.83l2.79,11.88,1,4.7c.22.82.38,1.59.54,2.41l.5,2.35h.16l.44-2.35c.71-3.89.82-4.71,1.37-7.17l2.46-11.82h6.13l-5.65,25.55Z" />
      <path class="j"
        d="m263.46,203.29c0,6.51-2.58,8.48-11,8.48-10.23,0-12.53-2.41-12.53-13.24,0-5.58.6-8.31,2.24-10.17,1.81-2,4.65-2.79,9.8-2.79,6.67,0,9.52,1.47,10.83,5.52.55,1.81.66,3.06.66,8.7h-17.29v1c0,5.2,1.09,6.41,5.8,6.41s5.3-.61,5.36-3.89l6.13-.02Zm-6.08-8.31c-.11-4.05-.93-4.82-5.52-4.82-3.34,0-4.54.44-5.2,2-.33.82-.38,1.53-.44,3.77h11.16v-.95Z" />
      <path class="j"
        d="m274.67,185.89l-.38,3.56h.11c1.64-2.95,3.44-4,6.95-4,1.91-.12,3.78.58,5.14,1.92,1.2,1.36,1.58,3,1.58,6.51v1.86h-5.79c.04-.48.06-.95.05-1.43,0-3.12-.71-4-3.17-4-1.7-.15-3.31.76-4.05,2.3-.4,1.2-.55,2.46-.44,3.72v15h-6.18v-25.44h6.18Z" />
      <path class="j" d="m298.11,180.2h-6.18v-5.25h6.18v5.25Zm0,31.24h-6.18v-25.55h6.18v25.55Z" />
      <path class="j"
        d="m309.96,185.89l-.22,4.33h.11c1.21-3.23,3.67-4.65,7.94-4.65s6.84,1.14,8.09,3.33c.66,1.21.88,2.35.88,5.15v17.39h-6.18v-15.37c0-4.6-.77-5.53-4.54-5.53-4.16,0-6,1.75-6,5.75v15.15h-6.29v-25.55h6.21Z" />
      <path class="j"
        d="m355.48,211.94c0,8.42-2.79,10.88-12.26,10.88-5.74,0-8.75-1.09-10-3.66-.49-1.15-.65-2.19-.71-5.09h6c0,3.39.76,4,5.08,4s5.69-1.15,5.69-4.81v-5.65l-.11-.06c-1.14,2.85-3.44,4.11-7.6,4.11-3.5,0-6.35-1-7.82-2.85-1.64-1.91-2.14-4.48-2.14-10.39s.66-8.65,2.63-10.56c1.48-1.48,3.94-2.24,7.22-2.24,4.54,0,6.57,1.14,8,4.54h.11l-.28-4.22h6.19v26Zm-17.57-13.68c0,7.22.77,8.42,5.53,8.42,2.35,0,3.83-.49,4.65-1.47.88-1.15,1.09-2.52,1.09-6.84,0-6.57-.93-7.88-5.58-7.88-4.86,0-5.69,1.12-5.69,7.77Z" />
      <path class="j"
        d="m393.17,190.54h-9.74v12.81c0,2.95.49,3.66,2.62,3.66,2.41,0,3-.87,3-4.38.02-.33.02-.67,0-1h5.12v1.47c0,3.56-.32,4.87-1.36,6.29-1.32,1.7-3.45,2.41-7.39,2.41-4.27,0-6.4-.93-7.55-3.17-.55-1-.66-1.92-.66-4.38v-13.71h-3.33v-4.65h3.29v-5.69h6.19v5.69h9.81v4.65Z" />
      <path class="j"
        d="m404.17,190.11h.11c1.31-3.45,3.17-4.54,7.93-4.54,6.29,0,8.81,2.46,8.81,8.53v17.34h-6.19v-15.7c0-2.35-.05-2.84-.54-3.61-.66-1.15-1.81-1.59-3.94-1.59-4.65,0-6.18,1.65-6.18,6.4v14.5h-6.19v-36.49h6.19v15.16Z" />
      <path class="j"
        d="m449.41,203.29c0,6.51-2.58,8.48-11,8.48-10.23,0-12.53-2.41-12.53-13.24,0-5.58.6-8.31,2.24-10.17,1.81-2,4.65-2.79,9.8-2.79,6.67,0,9.52,1.47,10.83,5.52.55,1.81.66,3.06.66,8.7h-17.24v1c0,5.2,1.09,6.41,5.8,6.41s5.3-.61,5.36-3.89l6.08-.02Zm-6.08-8.31c-.11-4.05-.93-4.82-5.52-4.82-3.34,0-4.54.44-5.2,2-.33.82-.38,1.53-.44,3.77h11.16v-.95Z" />
      <path class="j"
        d="m490.17,185.61v-.66c0-4-1.15-4.81-6.78-4.81-6.62,0-7.93.82-7.93,5,0,2.62.65,3.83,2.4,4.37.93.28,1.26.28,6.95.61,6.13.38,8.21.76,10,2,2.24,1.53,3,3.67,3,8.32s-.66,7-2.25,8.59c-2.18,2.13-5,2.73-12.58,2.73-6.62,0-8.86-.38-11.27-1.8-1.53-1.05-2.57-2.67-2.9-4.49-.34-1.84-.48-3.71-.44-5.58h6.73c0,2.73.17,3.66.77,4.59.87,1.48,1.75,1.65,7.44,1.65,4.1,0,5.25-.17,6.29-1,.93-.66,1.31-2.08,1.31-4.59s-.54-3.56-2-4q-.88-.33-6.95-.71c-6.24-.39-7.55-.61-9.41-1.48-2.9-1.42-4.05-4.05-4.05-9.08,0-4.33.93-7,2.9-8.43,2.25-1.69,5.09-2.19,11.87-2.19s9.8.71,11.6,2.74c1.43,1.59,2.08,3.77,2.08,6.95v1.27h-6.78Z" />
      <path class="j"
        d="m523.27,187.7c1.91,1.8,2.62,4.54,2.62,10.34,0,11.38-2.08,13.73-12,13.73-6,0-8.92-.93-10.45-3.45-1.26-2-1.64-4.37-1.64-10.61,0-5.58.76-8.32,2.73-10.07,1.81-1.58,4.1-2.07,9.52-2.07,5.17.04,7.52.54,9.22,2.13Zm-15.21,10.72c0,7.5.71,8.54,5.69,8.54s5.85-1.1,5.85-8.81c0-6.73-.76-7.77-5.8-7.77s-5.74,1.04-5.74,8.04h0Z" />
      <path class="j" d="m537.08,211.44h-6.18v-36.49h6.18v36.49Z" />
      <path class="j"
        d="m542.86,193.28c0-2.63.27-3.89,1.09-5,1.37-2,4.05-2.68,9.74-2.68,9,0,11.6,2.07,11.6,9.19v16.68h-6.18l.27-3.5h-.16c-1.37,3-3.23,3.83-8.1,3.83-6.84,0-9.3-2.08-9.3-7.93s2.57-8,9.41-8c5,0,6.73.66,7.77,2.95h.11v-4.21c0-4-1-5-5.2-5-3.89,0-4.71.61-4.82,3.67h-6.23Zm5.25,10.23c0,3.17,1,3.88,5.36,3.88s5.69-.87,5.69-3.72-1.26-3.72-5.69-3.72-5.36.72-5.36,3.56Z" />
      <path class="j"
        d="m577.1,185.89l-.39,3.56h.11c1.64-2.95,3.45-4,7-4,1.91-.12,3.78.58,5.14,1.92,1.21,1.36,1.59,3,1.59,6.51v1.86h-5.8c.04-.48.06-.95.05-1.43,0-3.12-.71-4-3.17-4-1.68-.13-3.27.78-4,2.3-.39,1.2-.54,2.46-.43,3.72v15h-6.19v-25.44h6.09Z" />
      <path class="j" d="m616.17,190.61h16.25v5.8h-16.25v15h-7v-36.46h24.13v5.8h-17.13v9.86Z" />
      <path class="j"
        d="m659.72,211.44h-6.18l.33-4.37-.11-.06c-1.26,3.34-3.72,4.76-8.21,4.76-6,0-8.59-2.68-8.59-8.7v-17.18h6.21v15.72c-.11,1.21.06,2.42.5,3.55.6,1.15,1.8,1.64,4,1.64,2.79,0,4.43-.82,5.3-2.57.44-.93.55-1.91.55-4.38v-13.96h6.18l.02,25.55Z" />
      <path class="j"
        d="m682.81,190.54h-9.74v12.81c0,2.95.49,3.66,2.63,3.66,2.4,0,3-.87,3-4.38,0-.33-.02-.67-.06-1h5.2v1.47c0,3.56-.33,4.87-1.37,6.29-1.31,1.7-3.45,2.41-7.39,2.41-4.26,0-6.4-.93-7.55-3.17-.54-1-.65-1.92-.65-4.38v-13.71h-3.34v-4.65h3.34v-5.69h6.18v5.69h9.74v4.65Z" />
      <path class="j"
        d="m710.41,211.44h-6.18l.32-4.37-.11-.06c-1.25,3.34-3.72,4.76-8.2,4.76-6,0-8.59-2.68-8.59-8.7v-17.18h6.18v15.72c-.11,1.21.06,2.42.49,3.55.61,1.15,1.81,1.64,4.05,1.64,2.79,0,4.43-.82,5.31-2.57.44-.93.55-1.91.55-4.38v-13.96h6.18v25.55Z" />
      <path class="j"
        d="m722.27,185.89l-.38,3.56h.1c1.65-2.95,3.45-4,6.95-4,1.91-.12,3.79.57,5.15,1.92,1.2,1.36,1.58,3,1.58,6.51v1.86h-5.8c.05-.47.07-.95.06-1.43,0-3.12-.71-4-3.18-4-1.68-.14-3.27.78-4,2.3-.4,1.2-.55,2.46-.44,3.72v15h-6.18v-25.44h6.14Z" />
      <path class="j"
        d="m762.62,203.29c0,6.51-2.57,8.48-11,8.48-10.23,0-12.53-2.41-12.53-13.24,0-5.58.6-8.31,2.24-10.17,1.81-2,4.66-2.79,9.8-2.79,6.67,0,9.52,1.47,10.83,5.52.55,1.81.66,3.06.66,8.7h-17.29v1c0,5.2,1.09,6.41,5.8,6.41s5.3-.61,5.36-3.89l6.13-.02Zm-6.08-8.31c-.11-4.05-.93-4.82-5.52-4.82-3.34,0-4.54.44-5.2,2-.33.82-.38,1.53-.44,3.77h11.16v-.95Z" />
    </g>
  </g>
  <g id="e">
    <polygon class="j"
      points="690.31 147.4 620.43 147.4 548.15 0 597.4 0 651.24 110.59 659.53 110.59 713.49 0 762.53 0 690.31 147.4" />
  </g>
  <g id="f">
    <path class="j"
      d="m506.36.01h-58.55l-61.35,79.66v67.74h45.28v-52.5h63c34.43,0,56.43-15.71,56.43-42.21v-9.81C551.17,12.26,530.48,0,506.41,0h-.05Zm-11,63h-44.9l24.52-31.08h18.77c17.29,0,17.36,5.31,17.36,13.82v4.86c0,7.84-6.11,12.39-15.76,12.39h.01Z" />
  </g>
  <g id="g">
    <polygon class="k"
      points="383.09 0 348.45 48.07 313.81 0 264.48 0 325.78 79.63 325.79 147.4 354.12 147.4 354.12 147.4 371.11 147.4 371.11 79.63 432.43 0 383.09 0" />
  </g>
  <g id="h">
    <polygon class="k"
      points="253.09 147.42 207.77 147.42 207.77 37.13 200.9 37.13 145.74 147.42 107.43 147.42 52.17 37.13 45.44 37.13 45.42 147.42 0 147.42 0 0 82.8 0 126.6 95.25 170.51 0 253.09 0 253.09 147.42" />
  </g>
</svg>